<?xml version="1.0" encoding="UTF-8"?>
<svg xmlns="http://www.w3.org/2000/svg" viewBox="0 0 426 129" width="426" height="129">
  <path d="M 43 74 L 41 75 L 48 78 L 53 83 L 54 91 L 50 96 L 45 98 L 33 95 L 41 101 L 49 101 L 56 95 L 58 85 L 53 77 Z M 354 40 L 354 88 L 364 88 L 365 61 L 376 85 L 383 86 L 395 60 L 396 88 L 405 88 L 405 40 L 395 41 L 380 74 L 364 40 Z M 315 40 L 297 88 L 307 88 L 312 78 L 329 78 L 333 88 L 343 88 L 342 82 L 326 41 Z M 320 52 L 327 70 L 326 71 L 314 70 Z M 256 40 L 256 88 L 288 88 L 288 79 L 266 78 L 267 68 L 285 68 L 285 59 L 267 59 L 266 49 L 288 48 L 288 40 Z M 205 40 L 205 48 L 220 49 L 220 88 L 230 88 L 230 49 L 244 48 L 244 40 Z M 417 39 L 413 42 L 412 48 L 416 52 L 423 51 L 425 44 L 422 40 Z M 415 50 L 418 46 L 421 50 Z M 417 45 L 418 43 L 420 44 L 418 46 Z M 415 41 L 415 50 L 413 48 L 413 43 Z M 417 40 L 420 40 L 424 44 L 422 50 L 420 47 L 421 44 L 417 42 Z M 175 39 L 168 42 L 163 49 L 163 57 L 165 61 L 169 64 L 183 69 L 187 73 L 187 76 L 183 79 L 172 79 L 165 76 L 162 84 L 171 88 L 181 89 L 191 86 L 195 82 L 198 73 L 196 67 L 192 63 L 176 57 L 173 54 L 173 51 L 179 47 L 186 48 L 192 51 L 196 44 L 192 41 L 185 39 Z M 87 31 L 77 33 L 71 39 L 69 44 L 69 50 L 72 57 L 81 63 L 89 63 L 94 61 L 101 51 L 101 44 L 99 39 L 94 34 Z M 88 35 L 95 40 L 97 44 L 97 51 L 91 58 L 85 60 L 79 58 L 75 54 L 73 50 L 73 44 L 76 39 L 80 36 Z M 56 0 L 40 4 L 30 9 L 15 22 L 5 38 L 0 58 L 35 73 L 40 70 L 45 70 L 60 49 L 62 39 L 70 28 L 81 23 L 93 24 L 100 28 L 106 35 L 109 42 L 109 53 L 106 60 L 98 68 L 92 71 L 82 73 L 63 87 L 63 91 L 60 98 L 52 105 L 37 105 L 29 98 L 26 91 L 3 82 L 5 90 L 10 99 L 25 115 L 44 125 L 59 128 L 70 128 L 84 125 L 97 119 L 115 103 L 124 87 L 128 70 L 128 59 L 125 44 L 119 31 L 111 20 L 103 13 L 81 2 L 71 0 Z " fill="#fff" fill-rule="evenodd"/>
</svg>
